<?xml version="1.0" standalone="no"?>
<!DOCTYPE svg PUBLIC "-//W3C//DTD SVG 20010904//EN"
 "http://www.w3.org/TR/2001/REC-SVG-20010904/DTD/svg10.dtd">
<svg version="1.0" xmlns="http://www.w3.org/2000/svg"
 width="128.000000pt" height="128.000000pt" viewBox="0 0 128.000000 128.000000"
 preserveAspectRatio="xMidYMid meet">
<metadata>
Created by potrace 1.14, written by Peter Selinger 2001-2017
</metadata>
<g transform="translate(0.000000,128.000000) scale(0.100000,-0.100000)"
fill="#000000" stroke="none">
<path d="M604 1152 l-30 -57 -78 -17 c-139 -32 -252 -108 -313 -209 -81 -136
-83 -314 -3 -455 l28 -51 -74 -141 c-41 -78 -74 -146 -74 -152 0 -6 86 -10
245 -10 l245 0 -6 38 c-3 20 -9 61 -12 91 -7 54 -8 55 -64 88 -35 20 -69 51
-88 78 l-30 44 21 35 21 36 244 0 244 0 20 -39 20 -40 -33 -43 c-18 -24 -55
-55 -81 -69 -27 -15 -52 -33 -56 -40 -4 -8 -11 -45 -15 -83 -4 -38 -9 -75 -12
-83 -4 -11 41 -13 241 -13 135 0 246 3 245 8 0 4 -33 72 -73 151 l-72 144 39
76 c34 67 40 89 44 163 7 101 -7 169 -50 251 -56 107 -177 191 -323 225 l-79
19 -30 55 -30 56 -31 -56z m-179 -352 c-63 -126 -118 -230 -121 -230 -12 0 4
193 20 244 24 78 79 151 138 186 29 16 59 30 66 30 7 0 -38 -101 -103 -230z
m397 195 c95 -63 154 -209 146 -367 l-3 -67 -115 226 c-63 125 -117 231 -119
236 -6 16 51 -2 91 -28z m17 -447 c1 -5 -93 -8 -207 -8 l-208 0 106 210 105
210 102 -203 c56 -111 102 -205 102 -209z m-478 -297 c35 -16 72 -31 82 -35 9
-3 17 -15 17 -26 0 -19 -6 -20 -110 -20 -60 0 -110 2 -110 5 0 9 50 105 54
105 2 0 32 -13 67 -29z m644 -21 c14 -27 25 -52 25 -55 0 -3 -49 -5 -110 -5
-105 0 -110 1 -110 21 0 12 8 23 20 26 10 3 45 18 77 33 32 16 61 29 65 29 4
1 19 -21 33 -49z"/>
</g>
</svg>
